<svg xmlns="http://www.w3.org/2000/svg" xmlns:xlink="http://www.w3.org/1999/xlink" width="1880"
    zoomAndPan="magnify" viewBox="0 0 1410 299.999988" height="300"
    preserveAspectRatio="xMidYMid meet" version="1.0">
    <defs>
        <g />
    </defs>
    <path fill="#00c0ff"
        d="M 88.011719 41.597656 C 126.488281 30.230469 185.953125 88.574219 185.953125 88.574219 C 185.953125 88.574219 231.15625 35.320312 283.894531 41.597656 C 347.777344 49.203125 333.417969 135.128906 327.910156 170.035156 C 353.628906 129.003906 348.457031 77.652344 343.882812 63.675781 C 337.671875 44.671875 322.023438 28.785156 302.878906 22.859375 C 237.046875 2.472656 185.953125 53.707031 185.953125 53.707031 C 185.953125 53.707031 123.570312 -3.003906 69.324219 19.445312 C 24.875 37.835938 0.125 103.265625 66.957031 156.453125 C 110.609375 191.195312 150 209.433594 181.804688 265.285156 C 176.179688 221.695312 123.191406 180.828125 86.699219 151.785156 C 30.957031 107.417969 49.535156 52.964844 88.011719 41.597656 "
        fill-opacity="1" fill-rule="nonzero" />
    <path fill="#043570"
        d="M 233.285156 224.621094 C 268.558594 185.804688 287.691406 146.648438 291.652344 118.75 C 308.792969 164.53125 281.464844 243.296875 204.863281 296.816406 C 214.253906 248.851562 174.371094 175.632812 90.019531 135.414062 C 202.238281 160.808594 233.285156 224.621094 233.285156 224.621094 "
        fill-opacity="1" fill-rule="nonzero" />
    <path fill="#043570"
        d="M 255.035156 155.03125 C 255.035156 168.21875 244.347656 178.910156 231.15625 178.910156 C 217.964844 178.910156 207.273438 168.21875 207.273438 155.03125 C 207.273438 141.839844 217.964844 131.148438 231.15625 131.148438 C 244.347656 131.148438 255.035156 141.839844 255.035156 155.03125 "
        fill-opacity="1" fill-rule="nonzero" />
    <g fill="#043570" fill-opacity="1">
        <g transform="translate(359.343779, 263.100199)">
            <g>
                <path
                    d="M 138.109375 -52.140625 L 139.046875 -52.140625 L 204.375 -225.9375 L 252.484375 -225.9375 L 252.484375 0 L 214.765625 0 L 214.765625 -162.3125 L 213.84375 -162.46875 L 151.609375 0 L 125.703125 0 L 62.390625 -165.578125 L 61.453125 -165.265625 L 61.453125 0 L 23.75 0 L 23.75 -225.9375 L 73.25 -225.9375 Z M 138.109375 -52.140625 " />
            </g>
        </g>
        <g transform="translate(635.722694, 263.100199)">
            <g>
                <path
                    d="M 121.046875 0 C 119.703125 -4.238281 118.585938 -8.375 117.703125 -12.40625 C 116.828125 -16.445312 116.234375 -20.484375 115.921875 -24.515625 C 110.847656 -16.648438 104.066406 -10.050781 95.578125 -4.71875 C 87.097656 0.601562 77.632812 3.265625 67.1875 3.265625 C 49.707031 3.265625 36.285156 -1.234375 26.921875 -10.234375 C 17.554688 -19.242188 12.875 -31.609375 12.875 -47.328125 C 12.875 -63.566406 19.285156 -76.210938 32.109375 -85.265625 C 44.941406 -94.316406 63 -98.84375 86.28125 -98.84375 L 115.609375 -98.84375 L 115.609375 -113.59375 C 115.609375 -122.382812 113.046875 -129.265625 107.921875 -134.234375 C 102.804688 -139.203125 95.382812 -141.6875 85.65625 -141.6875 C 77.070312 -141.6875 70.242188 -139.640625 65.171875 -135.546875 C 60.109375 -131.460938 57.578125 -126.160156 57.578125 -119.640625 L 21.265625 -119.484375 L 21.109375 -120.421875 C 20.378906 -133.660156 26.300781 -145.398438 38.875 -155.640625 C 51.445312 -165.890625 67.816406 -171.015625 87.984375 -171.015625 C 107.535156 -171.015625 123.3125 -166.046875 135.3125 -156.109375 C 147.3125 -146.179688 153.3125 -131.90625 153.3125 -113.28125 L 153.3125 -38.640625 C 153.3125 -31.710938 153.773438 -25.066406 154.703125 -18.703125 C 155.640625 -12.335938 157.144531 -6.101562 159.21875 0 Z M 74.953125 -27 C 84.367188 -27 92.878906 -29.378906 100.484375 -34.140625 C 108.085938 -38.898438 113.128906 -44.332031 115.609375 -50.4375 L 115.609375 -75.265625 L 85.65625 -75.265625 C 74.695312 -75.265625 66.113281 -72.546875 59.90625 -67.109375 C 53.695312 -61.679688 50.59375 -55.296875 50.59375 -47.953125 C 50.59375 -41.535156 52.6875 -36.4375 56.875 -32.65625 C 61.0625 -28.882812 67.085938 -27 74.953125 -27 Z M 74.953125 -27 " />
            </g>
        </g>
        <g transform="translate(808.595299, 263.100199)">
            <g>
                <path
                    d="M 54 -167.90625 L 56.171875 -143.703125 C 61.660156 -152.285156 68.566406 -158.984375 76.890625 -163.796875 C 85.222656 -168.609375 94.613281 -171.015625 105.0625 -171.015625 C 122.539062 -171.015625 136.164062 -165.632812 145.9375 -154.875 C 155.71875 -144.113281 160.609375 -127.300781 160.609375 -104.4375 L 160.609375 0 L 122.90625 0 L 122.90625 -104.125 C 122.90625 -117.164062 120.367188 -126.425781 115.296875 -131.90625 C 110.234375 -137.382812 102.578125 -140.125 92.328125 -140.125 C 84.265625 -140.125 77.28125 -138.597656 71.375 -135.546875 C 65.476562 -132.492188 60.773438 -128.28125 57.265625 -122.90625 L 57.265625 0 L 19.546875 0 L 19.546875 -167.90625 Z M 54 -167.90625 " />
            </g>
        </g>
        <g transform="translate(988.606271, 263.100199)">
            <g>
                <path
                    d="M 68.125 -208.71875 L 68.125 -167.90625 L 98.234375 -167.90625 L 98.234375 -139.96875 L 68.125 -139.96875 L 68.125 -47.171875 C 68.125 -40.242188 69.625 -35.304688 72.625 -32.359375 C 75.625 -29.410156 79.609375 -27.9375 84.578125 -27.9375 C 86.640625 -27.9375 88.65625 -28.113281 90.625 -28.46875 C 92.59375 -28.832031 94.457031 -29.328125 96.21875 -29.953125 L 100.25 -2.328125 C 97.039062 -0.566406 93.238281 0.800781 88.84375 1.78125 C 84.445312 2.769531 79.867188 3.265625 75.109375 3.265625 C 61.242188 3.265625 50.351562 -0.796875 42.4375 -8.921875 C 34.53125 -17.046875 30.578125 -29.796875 30.578125 -47.171875 L 30.578125 -139.96875 L 4.96875 -139.96875 L 4.96875 -167.90625 L 30.578125 -167.90625 L 30.578125 -208.71875 Z M 68.125 -208.71875 " />
            </g>
        </g>
        <g transform="translate(1097.388764, 263.100199)">
            <g>
                <path
                    d="M 103.5 -133.921875 L 87.375 -134.546875 C 80.019531 -134.546875 73.882812 -132.992188 68.96875 -129.890625 C 64.0625 -126.785156 60.265625 -122.390625 57.578125 -116.703125 L 57.578125 0 L 19.859375 0 L 19.859375 -167.90625 L 54.3125 -167.90625 L 56.796875 -143.546875 C 61.035156 -152.128906 66.488281 -158.851562 73.15625 -163.71875 C 79.832031 -168.582031 87.519531 -171.015625 96.21875 -171.015625 C 98.488281 -171.015625 100.609375 -170.832031 102.578125 -170.46875 C 104.546875 -170.101562 106.351562 -169.660156 108 -169.140625 Z M 103.5 -133.921875 " />
            </g>
        </g>
        <g transform="translate(1208.964531, 263.100199)">
            <g>
                <path
                    d="M 121.046875 0 C 119.703125 -4.238281 118.585938 -8.375 117.703125 -12.40625 C 116.828125 -16.445312 116.234375 -20.484375 115.921875 -24.515625 C 110.847656 -16.648438 104.066406 -10.050781 95.578125 -4.71875 C 87.097656 0.601562 77.632812 3.265625 67.1875 3.265625 C 49.707031 3.265625 36.285156 -1.234375 26.921875 -10.234375 C 17.554688 -19.242188 12.875 -31.609375 12.875 -47.328125 C 12.875 -63.566406 19.285156 -76.210938 32.109375 -85.265625 C 44.941406 -94.316406 63 -98.84375 86.28125 -98.84375 L 115.609375 -98.84375 L 115.609375 -113.59375 C 115.609375 -122.382812 113.046875 -129.265625 107.921875 -134.234375 C 102.804688 -139.203125 95.382812 -141.6875 85.65625 -141.6875 C 77.070312 -141.6875 70.242188 -139.640625 65.171875 -135.546875 C 60.109375 -131.460938 57.578125 -126.160156 57.578125 -119.640625 L 21.265625 -119.484375 L 21.109375 -120.421875 C 20.378906 -133.660156 26.300781 -145.398438 38.875 -155.640625 C 51.445312 -165.890625 67.816406 -171.015625 87.984375 -171.015625 C 107.535156 -171.015625 123.3125 -166.046875 135.3125 -156.109375 C 147.3125 -146.179688 153.3125 -131.90625 153.3125 -113.28125 L 153.3125 -38.640625 C 153.3125 -31.710938 153.773438 -25.066406 154.703125 -18.703125 C 155.640625 -12.335938 157.144531 -6.101562 159.21875 0 Z M 74.953125 -27 C 84.367188 -27 92.878906 -29.378906 100.484375 -34.140625 C 108.085938 -38.898438 113.128906 -44.332031 115.609375 -50.4375 L 115.609375 -75.265625 L 85.65625 -75.265625 C 74.695312 -75.265625 66.113281 -72.546875 59.90625 -67.109375 C 53.695312 -61.679688 50.59375 -55.296875 50.59375 -47.953125 C 50.59375 -41.535156 52.6875 -36.4375 56.875 -32.65625 C 61.0625 -28.882812 67.085938 -27 74.953125 -27 Z M 74.953125 -27 " />
            </g>
        </g>
    </g>
</svg>
