<svg xmlns="http://www.w3.org/2000/svg" xmlns:xlink="http://www.w3.org/1999/xlink" width="594" zoomAndPan="magnify" viewBox="0 0 445.5 74.999997" height="100" preserveAspectRatio="xMidYMid meet" version="1.0"><defs><g/><clipPath id="5ffc1cd9b2"><path d="M 14 32 L 54 32 L 54 65.992188 L 14 65.992188 Z M 14 32 " clip-rule="nonzero"/></clipPath></defs><path fill="#00c0ff" d="M 13.816406 17.515625 C 21.117188 15.359375 32.402344 26.429688 32.402344 26.429688 C 32.402344 26.429688 40.980469 16.324219 50.988281 17.515625 C 63.109375 18.957031 60.382812 35.261719 59.339844 41.886719 C 64.21875 34.101562 63.238281 24.355469 62.371094 21.707031 C 61.191406 18.097656 58.222656 15.085938 54.589844 13.960938 C 42.097656 10.09375 32.402344 19.8125 32.402344 19.8125 C 32.402344 19.8125 20.566406 9.054688 10.269531 13.3125 C 1.835938 16.800781 -2.859375 29.21875 9.824219 39.308594 C 18.105469 45.902344 25.578125 49.363281 31.613281 59.960938 C 30.546875 51.6875 20.492188 43.933594 13.570312 38.421875 C 2.992188 30.003906 6.515625 19.671875 13.816406 17.515625 " fill-opacity="1" fill-rule="nonzero"/><g clip-path="url(#5ffc1cd9b2)"><path fill="#043570" d="M 41.382812 52.246094 C 48.078125 44.878906 51.707031 37.449219 52.457031 32.15625 C 55.710938 40.84375 50.523438 55.789062 35.988281 65.941406 C 37.773438 56.839844 30.203125 42.949219 14.199219 35.316406 C 35.492188 40.136719 41.382812 52.246094 41.382812 52.246094 " fill-opacity="1" fill-rule="nonzero"/></g><path fill="#043570" d="M 45.511719 39.039062 C 45.511719 41.542969 43.480469 43.570312 40.980469 43.570312 C 38.476562 43.570312 36.445312 41.542969 36.445312 39.039062 C 36.445312 36.535156 38.476562 34.507812 40.980469 34.507812 C 43.480469 34.507812 45.511719 36.535156 45.511719 39.039062 " fill-opacity="1" fill-rule="nonzero"/><g fill="#043570" fill-opacity="1"><g transform="translate(75.772568, 60.153338)"><g><path d="M 42.484375 0 L 42.484375 -27.765625 C 42.484375 -28.390625 42.488281 -29.015625 42.5 -29.640625 C 42.507812 -30.273438 42.613281 -32.976562 42.8125 -37.75 C 41.269531 -31.914062 40.132812 -27.847656 39.40625 -25.546875 L 31.140625 0 L 24.3125 0 L 16.0625 -25.546875 L 12.578125 -37.75 C 12.835938 -32.71875 12.96875 -29.390625 12.96875 -27.765625 L 12.96875 0 L 4.453125 0 L 4.453125 -45.8125 L 17.296875 -45.8125 L 25.484375 -20.1875 L 26.203125 -17.71875 L 27.765625 -11.578125 L 29.8125 -18.921875 L 38.234375 -45.8125 L 51 -45.8125 L 51 0 Z M 42.484375 0 "/></g></g></g><g fill="#043570" fill-opacity="1"><g transform="translate(131.235495, 60.153338)"><g><path d="M 12.78125 0.65625 C 9.375 0.65625 6.71875 -0.269531 4.8125 -2.125 C 2.90625 -3.976562 1.953125 -6.585938 1.953125 -9.953125 C 1.953125 -13.585938 3.132812 -16.359375 5.5 -18.265625 C 7.875 -20.171875 11.316406 -21.148438 15.828125 -21.203125 L 23.40625 -21.328125 L 23.40625 -23.109375 C 23.40625 -25.410156 23.003906 -27.117188 22.203125 -28.234375 C 21.398438 -29.347656 20.085938 -29.90625 18.265625 -29.90625 C 16.578125 -29.90625 15.335938 -29.519531 14.546875 -28.75 C 13.753906 -27.976562 13.257812 -26.707031 13.0625 -24.9375 L 3.546875 -25.390625 C 4.128906 -28.816406 5.691406 -31.410156 8.234375 -33.171875 C 10.785156 -34.941406 14.257812 -35.828125 18.65625 -35.828125 C 23.101562 -35.828125 26.53125 -34.734375 28.9375 -32.546875 C 31.34375 -30.359375 32.546875 -27.25 32.546875 -23.21875 L 32.546875 -10.40625 C 32.546875 -8.425781 32.765625 -7.0625 33.203125 -6.3125 C 33.648438 -5.570312 34.394531 -5.203125 35.4375 -5.203125 C 36.125 -5.203125 36.796875 -5.265625 37.453125 -5.390625 L 37.453125 -0.453125 C 36.910156 -0.328125 36.421875 -0.207031 35.984375 -0.09375 C 35.554688 0.0078125 35.125 0.09375 34.6875 0.15625 C 34.25 0.226562 33.785156 0.285156 33.296875 0.328125 C 32.816406 0.367188 32.25 0.390625 31.59375 0.390625 C 29.300781 0.390625 27.609375 -0.171875 26.515625 -1.296875 C 25.421875 -2.421875 24.765625 -4.082031 24.546875 -6.28125 L 24.34375 -6.28125 C 21.789062 -1.65625 17.9375 0.65625 12.78125 0.65625 Z M 23.40625 -16.28125 L 18.71875 -16.21875 C 16.601562 -16.132812 15.097656 -15.898438 14.203125 -15.515625 C 13.316406 -15.140625 12.640625 -14.5625 12.171875 -13.78125 C 11.703125 -13 11.46875 -11.957031 11.46875 -10.65625 C 11.46875 -8.988281 11.851562 -7.75 12.625 -6.9375 C 13.394531 -6.125 14.421875 -5.71875 15.703125 -5.71875 C 17.128906 -5.71875 18.429688 -6.109375 19.609375 -6.890625 C 20.796875 -7.671875 21.722656 -8.75 22.390625 -10.125 C 23.066406 -11.5 23.40625 -12.957031 23.40625 -14.5 Z M 23.40625 -16.28125 "/></g></g></g><g fill="#043570" fill-opacity="1"><g transform="translate(168.264964, 60.153338)"><g><path d="M 27.4375 0 L 27.4375 -19.734375 C 27.4375 -25.910156 25.34375 -29 21.15625 -29 C 18.945312 -29 17.164062 -28.050781 15.8125 -26.15625 C 14.457031 -24.257812 13.78125 -21.828125 13.78125 -18.859375 L 13.78125 0 L 4.65625 0 L 4.65625 -27.3125 C 4.65625 -29.195312 4.625 -30.738281 4.5625 -31.9375 C 4.507812 -33.144531 4.453125 -34.222656 4.390625 -35.171875 L 13.09375 -35.171875 C 13.164062 -34.765625 13.253906 -33.664062 13.359375 -31.875 C 13.472656 -30.082031 13.53125 -28.851562 13.53125 -28.1875 L 13.65625 -28.1875 C 14.882812 -30.875 16.429688 -32.820312 18.296875 -34.03125 C 20.160156 -35.25 22.382812 -35.859375 24.96875 -35.859375 C 28.695312 -35.859375 31.554688 -34.707031 33.546875 -32.40625 C 35.546875 -30.113281 36.546875 -26.753906 36.546875 -22.328125 L 36.546875 0 Z M 27.4375 0 "/></g></g></g><g fill="#043570" fill-opacity="1"><g transform="translate(208.935609, 60.153338)"><g><path d="M 13.65625 0.578125 C 10.96875 0.578125 8.894531 -0.148438 7.4375 -1.609375 C 5.988281 -3.066406 5.265625 -5.28125 5.265625 -8.25 L 5.265625 -29 L 0.8125 -29 L 0.8125 -35.171875 L 5.71875 -35.171875 L 8.578125 -43.4375 L 14.296875 -43.4375 L 14.296875 -35.171875 L 20.96875 -35.171875 L 20.96875 -29 L 14.296875 -29 L 14.296875 -10.734375 C 14.296875 -9.015625 14.617188 -7.75 15.265625 -6.9375 C 15.921875 -6.125 16.929688 -5.71875 18.296875 -5.71875 C 19.015625 -5.71875 20.035156 -5.867188 21.359375 -6.171875 L 21.359375 -0.515625 C 19.109375 0.210938 16.539062 0.578125 13.65625 0.578125 Z M 13.65625 0.578125 "/></g></g></g><g fill="#043570" fill-opacity="1"><g transform="translate(231.107775, 60.153338)"><g><path d="M 4.65625 0 L 4.65625 -26.921875 C 4.65625 -28.847656 4.625 -30.453125 4.5625 -31.734375 C 4.507812 -33.023438 4.453125 -34.171875 4.390625 -35.171875 L 13.09375 -35.171875 C 13.164062 -34.785156 13.253906 -33.597656 13.359375 -31.609375 C 13.472656 -29.628906 13.53125 -28.316406 13.53125 -27.671875 L 13.65625 -27.671875 C 14.539062 -30.140625 15.328125 -31.875 16.015625 -32.875 C 16.710938 -33.882812 17.535156 -34.632812 18.484375 -35.125 C 19.441406 -35.613281 20.640625 -35.859375 22.078125 -35.859375 C 23.242188 -35.859375 24.1875 -35.695312 24.90625 -35.375 L 24.90625 -27.734375 C 23.425781 -28.054688 22.125 -28.21875 21 -28.21875 C 18.726562 -28.21875 16.957031 -27.296875 15.6875 -25.453125 C 14.414062 -23.609375 13.78125 -20.878906 13.78125 -17.265625 L 13.78125 0 Z M 4.65625 0 "/></g></g></g><g fill="#043570" fill-opacity="1"><g transform="translate(257.01865, 60.153338)"><g><path d="M 12.78125 0.65625 C 9.375 0.65625 6.71875 -0.269531 4.8125 -2.125 C 2.90625 -3.976562 1.953125 -6.585938 1.953125 -9.953125 C 1.953125 -13.585938 3.132812 -16.359375 5.5 -18.265625 C 7.875 -20.171875 11.316406 -21.148438 15.828125 -21.203125 L 23.40625 -21.328125 L 23.40625 -23.109375 C 23.40625 -25.410156 23.003906 -27.117188 22.203125 -28.234375 C 21.398438 -29.347656 20.085938 -29.90625 18.265625 -29.90625 C 16.578125 -29.90625 15.335938 -29.519531 14.546875 -28.75 C 13.753906 -27.976562 13.257812 -26.707031 13.0625 -24.9375 L 3.546875 -25.390625 C 4.128906 -28.816406 5.691406 -31.410156 8.234375 -33.171875 C 10.785156 -34.941406 14.257812 -35.828125 18.65625 -35.828125 C 23.101562 -35.828125 26.53125 -34.734375 28.9375 -32.546875 C 31.34375 -30.359375 32.546875 -27.25 32.546875 -23.21875 L 32.546875 -10.40625 C 32.546875 -8.425781 32.765625 -7.0625 33.203125 -6.3125 C 33.648438 -5.570312 34.394531 -5.203125 35.4375 -5.203125 C 36.125 -5.203125 36.796875 -5.265625 37.453125 -5.390625 L 37.453125 -0.453125 C 36.910156 -0.328125 36.421875 -0.207031 35.984375 -0.09375 C 35.554688 0.0078125 35.125 0.09375 34.6875 0.15625 C 34.25 0.226562 33.785156 0.285156 33.296875 0.328125 C 32.816406 0.367188 32.25 0.390625 31.59375 0.390625 C 29.300781 0.390625 27.609375 -0.171875 26.515625 -1.296875 C 25.421875 -2.421875 24.765625 -4.082031 24.546875 -6.28125 L 24.34375 -6.28125 C 21.789062 -1.65625 17.9375 0.65625 12.78125 0.65625 Z M 23.40625 -16.28125 L 18.71875 -16.21875 C 16.601562 -16.132812 15.097656 -15.898438 14.203125 -15.515625 C 13.316406 -15.140625 12.640625 -14.5625 12.171875 -13.78125 C 11.703125 -13 11.46875 -11.957031 11.46875 -10.65625 C 11.46875 -8.988281 11.851562 -7.75 12.625 -6.9375 C 13.394531 -6.125 14.421875 -5.71875 15.703125 -5.71875 C 17.128906 -5.71875 18.429688 -6.109375 19.609375 -6.890625 C 20.796875 -7.671875 21.722656 -8.75 22.390625 -10.125 C 23.066406 -11.5 23.40625 -12.957031 23.40625 -14.5 Z M 23.40625 -16.28125 "/></g></g></g><g fill="#00c0ff" fill-opacity="1"><g transform="translate(294.058819, 60.153338)"><g><path d="M 25.84375 -6.890625 C 31.632812 -6.890625 35.65625 -9.796875 37.90625 -15.609375 L 46.265625 -12.453125 C 44.460938 -8.023438 41.820312 -4.734375 38.34375 -2.578125 C 34.863281 -0.421875 30.695312 0.65625 25.84375 0.65625 C 18.476562 0.65625 12.785156 -1.425781 8.765625 -5.59375 C 4.742188 -9.769531 2.734375 -15.609375 2.734375 -23.109375 C 2.734375 -30.628906 4.671875 -36.40625 8.546875 -40.4375 C 12.429688 -44.46875 18.054688 -46.484375 25.421875 -46.484375 C 30.796875 -46.484375 35.171875 -45.40625 38.546875 -43.25 C 41.929688 -41.09375 44.304688 -37.925781 45.671875 -33.75 L 37.21875 -31.4375 C 36.507812 -33.726562 35.109375 -35.550781 33.015625 -36.90625 C 30.921875 -38.269531 28.453125 -38.953125 25.609375 -38.953125 C 21.273438 -38.953125 17.988281 -37.609375 15.75 -34.921875 C 13.507812 -32.234375 12.390625 -28.296875 12.390625 -23.109375 C 12.390625 -17.847656 13.539062 -13.828125 15.84375 -11.046875 C 18.15625 -8.273438 21.488281 -6.890625 25.84375 -6.890625 Z M 25.84375 -6.890625 "/></g></g></g><g fill="#00c0ff" fill-opacity="1"><g transform="translate(342.14186, 60.153338)"><g><path d="M 12.78125 0.65625 C 9.375 0.65625 6.71875 -0.269531 4.8125 -2.125 C 2.90625 -3.976562 1.953125 -6.585938 1.953125 -9.953125 C 1.953125 -13.585938 3.132812 -16.359375 5.5 -18.265625 C 7.875 -20.171875 11.316406 -21.148438 15.828125 -21.203125 L 23.40625 -21.328125 L 23.40625 -23.109375 C 23.40625 -25.410156 23.003906 -27.117188 22.203125 -28.234375 C 21.398438 -29.347656 20.085938 -29.90625 18.265625 -29.90625 C 16.578125 -29.90625 15.335938 -29.519531 14.546875 -28.75 C 13.753906 -27.976562 13.257812 -26.707031 13.0625 -24.9375 L 3.546875 -25.390625 C 4.128906 -28.816406 5.691406 -31.410156 8.234375 -33.171875 C 10.785156 -34.941406 14.257812 -35.828125 18.65625 -35.828125 C 23.101562 -35.828125 26.53125 -34.734375 28.9375 -32.546875 C 31.34375 -30.359375 32.546875 -27.25 32.546875 -23.21875 L 32.546875 -10.40625 C 32.546875 -8.425781 32.765625 -7.0625 33.203125 -6.3125 C 33.648438 -5.570312 34.394531 -5.203125 35.4375 -5.203125 C 36.125 -5.203125 36.796875 -5.265625 37.453125 -5.390625 L 37.453125 -0.453125 C 36.910156 -0.328125 36.421875 -0.207031 35.984375 -0.09375 C 35.554688 0.0078125 35.125 0.09375 34.6875 0.15625 C 34.25 0.226562 33.785156 0.285156 33.296875 0.328125 C 32.816406 0.367188 32.25 0.390625 31.59375 0.390625 C 29.300781 0.390625 27.609375 -0.171875 26.515625 -1.296875 C 25.421875 -2.421875 24.765625 -4.082031 24.546875 -6.28125 L 24.34375 -6.28125 C 21.789062 -1.65625 17.9375 0.65625 12.78125 0.65625 Z M 23.40625 -16.28125 L 18.71875 -16.21875 C 16.601562 -16.132812 15.097656 -15.898438 14.203125 -15.515625 C 13.316406 -15.140625 12.640625 -14.5625 12.171875 -13.78125 C 11.703125 -13 11.46875 -11.957031 11.46875 -10.65625 C 11.46875 -8.988281 11.851562 -7.75 12.625 -6.9375 C 13.394531 -6.125 14.421875 -5.71875 15.703125 -5.71875 C 17.128906 -5.71875 18.429688 -6.109375 19.609375 -6.890625 C 20.796875 -7.671875 21.722656 -8.75 22.390625 -10.125 C 23.066406 -11.5 23.40625 -12.957031 23.40625 -14.5 Z M 23.40625 -16.28125 "/></g></g></g><g fill="#00c0ff" fill-opacity="1"><g transform="translate(379.171329, 60.153338)"><g><path d="M 4.65625 0 L 4.65625 -26.921875 C 4.65625 -28.847656 4.625 -30.453125 4.5625 -31.734375 C 4.507812 -33.023438 4.453125 -34.171875 4.390625 -35.171875 L 13.09375 -35.171875 C 13.164062 -34.785156 13.253906 -33.597656 13.359375 -31.609375 C 13.472656 -29.628906 13.53125 -28.316406 13.53125 -27.671875 L 13.65625 -27.671875 C 14.539062 -30.140625 15.328125 -31.875 16.015625 -32.875 C 16.710938 -33.882812 17.535156 -34.632812 18.484375 -35.125 C 19.441406 -35.613281 20.640625 -35.859375 22.078125 -35.859375 C 23.242188 -35.859375 24.1875 -35.695312 24.90625 -35.375 L 24.90625 -27.734375 C 23.425781 -28.054688 22.125 -28.21875 21 -28.21875 C 18.726562 -28.21875 16.957031 -27.296875 15.6875 -25.453125 C 14.414062 -23.609375 13.78125 -20.878906 13.78125 -17.265625 L 13.78125 0 Z M 4.65625 0 "/></g></g></g><g fill="#00c0ff" fill-opacity="1"><g transform="translate(405.082204, 60.153338)"><g><path d="M 19.046875 0.65625 C 13.765625 0.65625 9.703125 -0.910156 6.859375 -4.046875 C 4.015625 -7.179688 2.59375 -11.75 2.59375 -17.75 C 2.59375 -23.5625 4.035156 -28.023438 6.921875 -31.140625 C 9.804688 -34.265625 13.894531 -35.828125 19.1875 -35.828125 C 24.226562 -35.828125 28.082031 -34.148438 30.75 -30.796875 C 33.414062 -27.453125 34.75 -22.550781 34.75 -16.09375 L 34.75 -15.828125 L 12.1875 -15.828125 C 12.1875 -12.410156 12.820312 -9.828125 14.09375 -8.078125 C 15.363281 -6.335938 17.164062 -5.46875 19.5 -5.46875 C 22.726562 -5.46875 24.765625 -6.863281 25.609375 -9.65625 L 34.234375 -8.90625 C 31.742188 -2.53125 26.679688 0.65625 19.046875 0.65625 Z M 19.046875 -30.078125 C 16.898438 -30.078125 15.25 -29.328125 14.09375 -27.828125 C 12.9375 -26.328125 12.320312 -24.234375 12.25 -21.546875 L 25.90625 -21.546875 C 25.738281 -24.390625 25.054688 -26.519531 23.859375 -27.9375 C 22.671875 -29.363281 21.066406 -30.078125 19.046875 -30.078125 Z M 19.046875 -30.078125 "/></g></g></g></svg>
